<?xml version="1.0" encoding="UTF-8" standalone="no"?>
<!DOCTYPE svg PUBLIC "-//W3C//DTD SVG 1.1//EN"
 "http://www.w3.org/Graphics/SVG/1.1/DTD/svg11.dtd">
<!-- Generated by graphviz version 2.43.0 (0)
 -->
<!-- Title: %3 Pages: 1 -->
<svg width="406pt" height="476pt"
 viewBox="0.00 0.00 406.14 476.00" xmlns="http://www.w3.org/2000/svg" xmlns:xlink="http://www.w3.org/1999/xlink">
<g id="graph0" class="graph" transform="scale(1 1) rotate(0) translate(4 472)">
<title>%3</title>
<polygon fill="white" stroke="transparent" points="-4,4 -4,-472 402.14,-472 402.14,4 -4,4"/>
<!-- rdflib -->
<g id="node1" class="node">
<title>rdflib</title>
<ellipse fill="none" stroke="#e41a1c" cx="91.8" cy="-18" rx="36" ry="18"/>
<text text-anchor="middle" x="91.8" y="-14.3" font-family="Times,serif" font-size="14.00" fill="#e41a1c">rdflib</text>
</g>
<!-- solid_ui -->
<g id="node2" class="node">
<title>solid_ui</title>
<ellipse fill="none" stroke="#377eb8" cx="129.8" cy="-234" rx="48.19" ry="18"/>
<text text-anchor="middle" x="129.8" y="-230.3" font-family="Times,serif" font-size="14.00" fill="#377eb8">Solid UI</text>
</g>
<!-- solid_ui&#45;&gt;rdflib -->
<g id="edge17" class="edge">
<title>solid_ui&#45;&gt;rdflib</title>
<path fill="none" stroke="#377eb8" d="M126.75,-215.85C120.16,-178.75 104.55,-90.81 96.61,-46.1"/>
<polygon fill="#377eb8" stroke="#377eb8" points="100.05,-45.47 94.86,-36.23 93.16,-46.69 100.05,-45.47"/>
</g>
<!-- pane_registry -->
<g id="node4" class="node">
<title>pane_registry</title>
<ellipse fill="none" stroke="#984ea3" cx="230.8" cy="-162" rx="73.39" ry="18"/>
<text text-anchor="middle" x="230.8" y="-158.3" font-family="Times,serif" font-size="14.00" fill="#984ea3">pane&#45;registry</text>
</g>
<!-- solid_ui&#45;&gt;pane_registry -->
<g id="edge18" class="edge">
<title>solid_ui&#45;&gt;pane_registry</title>
<path fill="none" stroke="#377eb8" d="M151.71,-217.81C165.61,-208.18 183.83,-195.55 199.27,-184.85"/>
<polygon fill="#377eb8" stroke="#377eb8" points="201.29,-187.71 207.52,-179.13 197.3,-181.95 201.29,-187.71"/>
</g>
<!-- solid_logic -->
<g id="node7" class="node">
<title>solid_logic</title>
<ellipse fill="none" stroke="#a65628" cx="276.8" cy="-90" rx="57.69" ry="18"/>
<text text-anchor="middle" x="276.8" y="-86.3" font-family="Times,serif" font-size="14.00" fill="#a65628">solid&#45;logic</text>
</g>
<!-- solid_ui&#45;&gt;solid_logic -->
<g id="edge16" class="edge">
<title>solid_ui&#45;&gt;solid_logic</title>
<path fill="none" stroke="#377eb8" d="M128.97,-215.91C128.94,-196.35 131.81,-164.4 148.8,-144 166.25,-123.03 193.37,-110.24 218.16,-102.49"/>
<polygon fill="#377eb8" stroke="#377eb8" points="219.26,-105.82 227.89,-99.67 217.31,-99.1 219.26,-105.82"/>
</g>
<!-- solid_panes -->
<g id="node3" class="node">
<title>solid_panes</title>
<ellipse fill="none" stroke="#4daf4a" cx="167.8" cy="-306" rx="63.09" ry="18"/>
<text text-anchor="middle" x="167.8" y="-302.3" font-family="Times,serif" font-size="14.00" fill="#4daf4a">solid&#45;panes</text>
</g>
<!-- solid_panes&#45;&gt;rdflib -->
<g id="edge13" class="edge">
<title>solid_panes&#45;&gt;rdflib</title>
<path fill="none" stroke="#4daf4a" d="M125.56,-292.57C105.86,-284.41 84.27,-271.54 72.8,-252 34.01,-185.95 62.74,-90.65 80.51,-45.13"/>
<polygon fill="#4daf4a" stroke="#4daf4a" points="83.83,-46.27 84.33,-35.69 77.34,-43.65 83.83,-46.27"/>
</g>
<!-- solid_panes&#45;&gt;solid_ui -->
<g id="edge14" class="edge">
<title>solid_panes&#45;&gt;solid_ui</title>
<path fill="none" stroke="#4daf4a" d="M158.6,-288.05C154.16,-279.89 148.75,-269.91 143.81,-260.82"/>
<polygon fill="#4daf4a" stroke="#4daf4a" points="146.76,-258.91 138.91,-251.79 140.6,-262.25 146.76,-258.91"/>
</g>
<!-- solid_panes&#45;&gt;pane_registry -->
<g id="edge12" class="edge">
<title>solid_panes&#45;&gt;pane_registry</title>
<path fill="none" stroke="#4daf4a" d="M175.4,-287.87C186.23,-263.46 206.21,-218.43 218.98,-189.64"/>
<polygon fill="#4daf4a" stroke="#4daf4a" points="222.31,-190.75 223.17,-180.19 215.91,-187.91 222.31,-190.75"/>
</g>
<!-- solid_panes&#45;&gt;solid_logic -->
<g id="edge15" class="edge">
<title>solid_panes&#45;&gt;solid_logic</title>
<path fill="none" stroke="#4daf4a" d="M224.85,-298.23C279.57,-290.42 356.51,-275.55 374.8,-252 410.93,-205.45 347.72,-144.72 307.07,-112.79"/>
<polygon fill="#4daf4a" stroke="#4daf4a" points="309.09,-109.93 299.02,-106.62 304.82,-115.48 309.09,-109.93"/>
</g>
<!-- pane_registry&#45;&gt;rdflib -->
<g id="edge11" class="edge">
<title>pane_registry&#45;&gt;rdflib</title>
<path fill="none" stroke="#984ea3" d="M214.58,-144.43C189.73,-119.05 142.17,-70.46 114.09,-41.78"/>
<polygon fill="#984ea3" stroke="#984ea3" points="116.56,-39.29 107.06,-34.6 111.56,-44.19 116.56,-39.29"/>
</g>
<!-- pane_registry&#45;&gt;solid_logic -->
<g id="edge10" class="edge">
<title>pane_registry&#45;&gt;solid_logic</title>
<path fill="none" stroke="#984ea3" d="M241.93,-144.05C247.41,-135.71 254.13,-125.49 260.2,-116.25"/>
<polygon fill="#984ea3" stroke="#984ea3" points="263.2,-118.07 265.76,-107.79 257.35,-114.22 263.2,-118.07"/>
</g>
<!-- profile_pane -->
<g id="node5" class="node">
<title>profile_pane</title>
<ellipse fill="none" stroke="#ff7f00" cx="299.8" cy="-234" rx="65.79" ry="18"/>
<text text-anchor="middle" x="299.8" y="-230.3" font-family="Times,serif" font-size="14.00" fill="#ff7f00">profile&#45;pane</text>
</g>
<!-- profile_pane&#45;&gt;pane_registry -->
<g id="edge1" class="edge">
<title>profile_pane&#45;&gt;pane_registry</title>
<path fill="none" stroke="#ff7f00" d="M283.44,-216.41C274.89,-207.73 264.26,-196.95 254.79,-187.34"/>
<polygon fill="#ff7f00" stroke="#ff7f00" points="257.02,-184.62 247.51,-179.96 252.04,-189.54 257.02,-184.62"/>
</g>
<!-- profile_pane&#45;&gt;solid_logic -->
<g id="edge2" class="edge">
<title>profile_pane&#45;&gt;solid_logic</title>
<path fill="none" stroke="#ff7f00" d="M306.66,-215.93C312.96,-197.76 320.28,-168.33 312.8,-144 309.74,-134.06 304.11,-124.31 298.2,-115.93"/>
<polygon fill="#ff7f00" stroke="#ff7f00" points="300.85,-113.63 292.03,-107.76 295.26,-117.85 300.85,-113.63"/>
</g>
<!-- mashlib -->
<g id="node6" class="node">
<title>mashlib</title>
<ellipse fill="none" stroke="#999999" cx="167.8" cy="-378" rx="47.39" ry="18"/>
<text text-anchor="middle" x="167.8" y="-374.3" font-family="Times,serif" font-size="14.00" fill="#999999">mashlib</text>
</g>
<!-- mashlib&#45;&gt;rdflib -->
<g id="edge5" class="edge">
<title>mashlib&#45;&gt;rdflib</title>
<path fill="none" stroke="#999999" d="M136.3,-364.41C91.78,-344.28 15.8,-300.36 15.8,-235 15.8,-235 15.8,-235 15.8,-161 15.8,-114.63 47.69,-68.74 70.16,-42.18"/>
<polygon fill="#999999" stroke="#999999" points="72.85,-44.41 76.78,-34.57 67.57,-39.81 72.85,-44.41"/>
</g>
<!-- mashlib&#45;&gt;solid_panes -->
<g id="edge4" class="edge">
<title>mashlib&#45;&gt;solid_panes</title>
<path fill="none" stroke="#999999" d="M167.8,-359.7C167.8,-351.98 167.8,-342.71 167.8,-334.11"/>
<polygon fill="#999999" stroke="#999999" points="171.3,-334.1 167.8,-324.1 164.3,-334.1 171.3,-334.1"/>
</g>
<!-- mashlib&#45;&gt;solid_logic -->
<g id="edge3" class="edge">
<title>mashlib&#45;&gt;solid_logic</title>
<path fill="none" stroke="#999999" d="M207.56,-368.17C260.88,-353.95 353.48,-320.36 393.8,-252 410.28,-224.04 372.27,-144.58 371.8,-144 359.28,-128.5 340.96,-116.78 323.73,-108.35"/>
<polygon fill="#999999" stroke="#999999" points="324.86,-105.02 314.32,-104 321.93,-111.37 324.86,-105.02"/>
</g>
<!-- solid_logic&#45;&gt;rdflib -->
<g id="edge6" class="edge">
<title>solid_logic&#45;&gt;rdflib</title>
<path fill="none" stroke="#a65628" d="M241.56,-75.67C209.45,-63.52 162.16,-45.62 129.34,-33.21"/>
<polygon fill="#a65628" stroke="#a65628" points="130.24,-29.81 119.65,-29.54 127.77,-36.35 130.24,-29.81"/>
</g>
<!-- server -->
<g id="node8" class="node">
<title>server</title>
<ellipse fill="none" stroke="#f781bf" cx="46.8" cy="-450" rx="46.59" ry="18"/>
<text text-anchor="middle" x="46.8" y="-446.3" font-family="Times,serif" font-size="14.00" fill="#f781bf">Servers</text>
</g>
<!-- server&#45;&gt;mashlib -->
<g id="edge7" class="edge">
<title>server&#45;&gt;mashlib</title>
<path fill="none" stroke="#f781bf" d="M71.57,-434.67C89.56,-424.26 114.11,-410.06 133.91,-398.6"/>
<polygon fill="#f781bf" stroke="#f781bf" points="135.73,-401.59 142.64,-393.56 132.23,-395.53 135.73,-401.59"/>
</g>
<!-- app -->
<g id="node9" class="node">
<title>app</title>
<ellipse fill="none" stroke="#f781bf" cx="167.8" cy="-450" rx="56.59" ry="18"/>
<text text-anchor="middle" x="167.8" y="-446.3" font-family="Times,serif" font-size="14.00" fill="#f781bf">Web Apps</text>
</g>
<!-- app&#45;&gt;mashlib -->
<g id="edge8" class="edge">
<title>app&#45;&gt;mashlib</title>
<path fill="none" stroke="#f781bf" d="M167.8,-431.7C167.8,-423.98 167.8,-414.71 167.8,-406.11"/>
<polygon fill="#f781bf" stroke="#f781bf" points="171.3,-406.1 167.8,-396.1 164.3,-406.1 171.3,-406.1"/>
</g>
<!-- native -->
<g id="node10" class="node">
<title>native</title>
<ellipse fill="none" stroke="#f781bf" cx="303.8" cy="-450" rx="61.99" ry="18"/>
<text text-anchor="middle" x="303.8" y="-446.3" font-family="Times,serif" font-size="14.00" fill="#f781bf">Native Aps</text>
</g>
<!-- native&#45;&gt;mashlib -->
<g id="edge9" class="edge">
<title>native&#45;&gt;mashlib</title>
<path fill="none" stroke="#f781bf" d="M274.62,-433.98C254,-423.37 226.21,-409.06 204.14,-397.71"/>
<polygon fill="#f781bf" stroke="#f781bf" points="205.56,-394.5 195.07,-393.04 202.36,-400.73 205.56,-394.5"/>
</g>
</g>
</svg>
